<?xml version="1.0"?>
<svg xmlns="http://www.w3.org/2000/svg" height="512px" viewBox="0 0 512 512" width="512px" class=""><g><path d="m478 0c-18.746094 0-34 15.253906-34 34v94.9375c-15.789062-18.894531-39.511719-30.941406-66-30.941406h-216.667969c-14.203125 0-26.753906 7.203125-34.195312 18.144531-8.375-8.707031-20.128907-14.144531-33.136719-14.144531-9.644531 0-18.597656 2.988281-26 8.082031v-76.078125c0-18.746094-15.253906-34-34-34s-34 15.253906-34 34v467.996094c0 5.523437 4.476562 10 10 10h48c5.523438 0 10-4.476563 10-10v-30h376v30c0 5.523437 4.476562 10 10 10h48c5.523438 0 10-4.476563 10-10v-467.996094c0-18.746094-15.253906-34-34-34zm-410 353.996094c0-14.335938 11.664062-26 26-26s26 11.664062 26 26c0 14.339844-11.664062 26-26 26s-26-11.660156-26-26zm72-8.664063c0-11.765625 9.570312-21.335937 21.332031-21.335937h216.667969c32.992188 0 60.410156 24.335937 65.242188 56h-303.242188zm238-41.335937h-216.667969c-14.203125 0-26.753906 7.203125-34.195312 18.144531-8.375-8.707031-20.128907-14.144531-33.136719-14.144531-9.644531 0-18.597656 2.988281-26 8.082031v-50.082031h148.132812c5.519532 0 10-4.476563 10-10 0-5.519532-4.480468-10-10-10h-148.132812v-52h376v52h-147.871094c-5.519531 0-10 4.480468-10 10 0 5.523437 4.480469 10 10 10h147.871094v68.941406c-15.789062-18.894531-39.511719-30.941406-66-30.941406zm-238-164.664063c0-11.765625 9.570312-21.335937 21.332031-21.335937h216.667969c32.992188 0 60.410156 24.335937 65.242188 56h-303.242188zm-46-17.335937c14.335938 0 26 11.664062 26 26 0 14.339844-11.664062 26-26 26s-26-11.660156-26-26c0-14.335938 11.664062-26 26-26zm-46 370h-28v-457.996094c0-7.71875 6.28125-14 14-14s14 6.28125 14 14zm20-40v-52h376v52zm424 40h-28v-457.996094c0-7.71875 6.28125-14 14-14s14 6.28125 14 14zm0 0" data-original="#000000" class="active-path" data-old_color="#000000" fill="#264A6C"/><path d="m256 246c-2.628906 0-5.210938 1.070312-7.070312 2.929688-1.859376 1.863281-2.929688 4.441406-2.929688 7.070312 0 2.632812 1.070312 5.199219 2.929688 7.070312 1.859374 1.859376 4.441406 2.929688 7.070312 2.929688s5.210938-1.070312 7.070312-2.929688c1.859376-1.859374 2.929688-4.4375 2.929688-7.070312 0-2.640625-1.070312-5.210938-2.929688-7.070312-1.859374-1.859376-4.441406-2.929688-7.070312-2.929688zm0 0" data-original="#000000" class="active-path" data-old_color="#000000" fill="#264A6C"/></g> </svg>
