<?xml version="1.0"?>
<svg xmlns="http://www.w3.org/2000/svg" height="512px" viewBox="0 0 512 512" width="512px"><g><path d="m416 226c5.519531 0 10-4.480469 10-10s-4.480469-10-10-10-10 4.480469-10 10 4.480469 10 10 10zm0 0" data-original="#000000" class="active-path" data-old_color="#000000" fill="#022C53"/><path d="m96 206c-5.519531 0-10 4.480469-10 10s4.480469 10 10 10 10-4.480469 10-10-4.480469-10-10-10zm0 0" data-original="#000000" class="active-path" data-old_color="#000000" fill="#022C53"/><path d="m504.667969 166.371094c-.0625-.019532-.125-.042969-.1875-.058594l-42.121094-10.78125c-72.128906-21.539062-138.171875-56.613281-196.359375-104.257812v-41.273438c0-5.523438-4.476562-10-10-10s-10 4.476562-10 10v41.273438c-57.988281 47.460937-123.765625 82.441406-195.59375 103.980468-9.652344 2.492188-42.300781 10.898438-43.09375 11.121094-4.304688 1.199219-7.21875 5.082031-7.3007812 9.429688-.0039063.0625-.0117188.128906-.0117188.195312v80c0 5.523438 4.476562 10 10 10h16v226h-10c-5.523438 0-10 4.476562-10 10s4.476562 10 10 10h140c5.523438 0 10-4.476562 10-10s-4.476562-10-10-10h-10v-171.347656c5.9375 3.425781 12.792969 5.347656 20 5.347656 11.4375 0 22.242188-4.777344 30.011719-13.574219 7.335937 8.316407 18.054687 13.574219 29.988281 13.574219 11.460938 0 22.257812-4.792969 30.011719-13.574219 7.335937 8.316407 18.054687 13.574219 29.988281 13.574219 11.460938 0 22.257812-4.792969 30.011719-13.574219 7.335937 8.316407 18.054687 13.574219 29.988281 13.574219 7.136719 0 13.984375-1.867188 20-5.355469v171.355469h-10c-5.523438 0-10 4.476562-10 10s4.476562 10 10 10h140c5.523438 0 10-4.476562 10-10s-4.476562-10-10-10h-10v-226h16c5.523438 0 10-4.476562 10-10v-80c0-.066406-.007812-.132812-.011719-.199219-.085937-4.421875-3.070312-8.257812-7.320312-9.429687zm-248.667969-97.4375c52.285156 42.3125 110.636719 74.878906 173.851562 97.066406h-155.539062c-5.515625-12.605469-8.3125-26.03125-8.3125-40 0-5.523438-4.476562-10-10-10s-10 4.476562-10 10c0 13.96875-2.796875 27.398438-8.3125 40h-155.671875c63.265625-22.175781 121.65625-54.738281 173.984375-97.066406zm-180 423.066406h-30v-226h30zm50 0h-30v-226h30zm10.878906-266.402344c-2.792968-.246094-5.5625.691406-7.632812 2.585938-2.066406 1.894531-3.246094 4.570312-3.246094 7.375v10.441406c-33.804688 0-72.253906 0-106 0v-20h36c5.523438 0 10-4.476562 10-10s-4.476562-10-10-10h-36v-20.011719h206.015625c-20.5625 27.472657-53.941406 42.710938-89.136719 39.609375zm29.121094 80.402344c-8.632812 0-16.253906-5.503906-18.980469-13.710938-.675781-2.019531-1.019531-4.136718-1.019531-6.300781h40c0 11.078125-8.976562 20.011719-20 20.011719zm60 0c-11.027344 0-20-8.980469-20-20.011719h40c0 11.078125-8.976562 20.011719-20 20.011719zm60 0c-11.027344 0-20-8.980469-20-20.011719h40c0 11.078125-8.976562 20.011719-20 20.011719zm60 0c-11.027344 0-20-8.980469-20-20.011719h40c0 10.890625-8.800781 20.011719-20 20.011719zm20-40h-220v-20.003906c48.015625-.023438 90.984375-28.328125 110-71.976563 18.976562 43.59375 61.921875 71.957031 110 71.976563zm50 226h-30c0-3.035156 0-220.449219 0-226h30zm50 0h-30v-226h30zm26-286h-36c-5.523438 0-10 4.476562-10 10s4.476562 10 10 10h36v20c-35.183594 0-85.707031 0-106 0v-10.441406c0-2.804688-1.179688-5.480469-3.246094-7.375-2.070312-1.894532-4.839844-2.835938-7.632812-2.585938-35.203125 3.097656-68.582032-12.128906-89.136719-39.597656h206.015625zm0 0" data-original="#000000" class="active-path" data-old_color="#000000" fill="#022C53"/></g> </svg>
